<?xml version="1.0" encoding="UTF-8" standalone="no"?>
<!-- Created with Inkscape (http://www.inkscape.org/) -->

<svg
   width="416"
   height="797"
   viewBox="0 0 110.06667 210.87292"
   version="1.1"
   id="svg1"
   xml:space="preserve"
   inkscape:version="1.3.2 (091e20e, 2023-11-25, custom)"
   sodipodi:docname="banner-install-complete.svg"
   inkscape:export-filename="banner-install-complete.png"
   inkscape:export-xdpi="96"
   inkscape:export-ydpi="96"
   xmlns:inkscape="http://www.inkscape.org/namespaces/inkscape"
   xmlns:sodipodi="http://sodipodi.sourceforge.net/DTD/sodipodi-0.dtd"
   xmlns="http://www.w3.org/2000/svg"
   xmlns:svg="http://www.w3.org/2000/svg"><sodipodi:namedview
     id="namedview1"
     pagecolor="#ffffff"
     bordercolor="#000000"
     borderopacity="0.25"
     inkscape:showpageshadow="2"
     inkscape:pageopacity="0.0"
     inkscape:pagecheckerboard="0"
     inkscape:deskcolor="#d1d1d1"
     inkscape:document-units="px"
     inkscape:zoom="1.0847363"
     inkscape:cx="94.032068"
     inkscape:cy="471.54317"
     inkscape:window-width="1920"
     inkscape:window-height="1057"
     inkscape:window-x="1272"
     inkscape:window-y="33"
     inkscape:window-maximized="1"
     inkscape:current-layer="layer1" /><defs
     id="defs1" /><g
     inkscape:label="Layer 1"
     inkscape:groupmode="layer"
     id="layer1"><rect
       style="fill:#b1d6b9;fill-opacity:1;stroke:none;stroke-width:2.87139;stroke-linecap:round;stroke-dasharray:none"
       id="rect1"
       width="110.06667"
       height="210.63635"
       x="0"
       y="0"
       rx="0"
       ry="0" /><text
       xml:space="preserve"
       style="font-style:normal;font-variant:normal;font-weight:800;font-stretch:normal;font-size:20.9482px;line-height:1.2;font-family:'A-OTF Shin Go Pro';-inkscape-font-specification:'A-OTF Shin Go Pro, Ultra-Bold';font-variant-ligatures:normal;font-variant-caps:normal;font-variant-numeric:normal;font-variant-east-asian:normal;text-align:center;letter-spacing:1.21011px;word-spacing:3.87235px;text-anchor:middle;fill:#000000;fill-opacity:1;stroke:none;stroke-width:3.22715;stroke-linecap:round;stroke-dasharray:none"
       x="54.259804"
       y="178.51146"
       id="text1-9"><tspan
         sodipodi:role="line"
         style="font-style:normal;font-variant:normal;font-weight:normal;font-stretch:normal;font-size:20.9482px;font-family:'VCR OSD Mono';-inkscape-font-specification:'VCR OSD Mono, Normal';font-variant-ligatures:normal;font-variant-caps:normal;font-variant-numeric:normal;font-variant-east-asian:normal;text-align:center;text-anchor:middle;fill:#000000;stroke-width:3.22715"
         x="54.864857"
         y="178.51146"
         id="tspan2-9">EDxDC</tspan></text><text
       xml:space="preserve"
       style="font-style:normal;font-variant:normal;font-weight:normal;font-stretch:normal;font-size:14.8864px;line-height:1.2;font-family:'VCR OSD Mono';-inkscape-font-specification:'VCR OSD Mono, Normal';font-variant-ligatures:normal;font-variant-caps:normal;font-variant-numeric:normal;font-variant-east-asian:normal;text-align:center;letter-spacing:0.661458px;word-spacing:2.6e-07px;text-anchor:middle;fill:#000000;fill-opacity:1;stroke:none;stroke-width:1.764;stroke-linecap:round;stroke-dasharray:none"
       x="55.557587"
       y="36.827499"
       id="text1"><tspan
         sodipodi:role="line"
         style="font-style:normal;font-variant:normal;font-weight:normal;font-stretch:normal;font-size:14.8864px;font-family:'VCR OSD Mono';-inkscape-font-specification:'VCR OSD Mono, Normal';font-variant-ligatures:normal;font-variant-caps:normal;font-variant-numeric:normal;font-variant-east-asian:normal;text-align:center;letter-spacing:0.661458px;word-spacing:2.6e-07px;text-anchor:middle;fill:#000000;stroke-width:1.764"
         x="55.557587"
         y="36.827499"
         id="tspan2">THANK YOU</tspan><tspan
         sodipodi:role="line"
         style="font-style:normal;font-variant:normal;font-weight:normal;font-stretch:normal;font-size:14.8864px;font-family:'VCR OSD Mono';-inkscape-font-specification:'VCR OSD Mono, Normal';font-variant-ligatures:normal;font-variant-caps:normal;font-variant-numeric:normal;font-variant-east-asian:normal;text-align:center;letter-spacing:0.661458px;word-spacing:2.6e-07px;text-anchor:middle;fill:#000000;stroke-width:1.764"
         x="55.888313"
         y="54.691181"
         id="tspan47">FOR TRYING</tspan></text><path
       style="fill:none;fill-opacity:1;stroke:none;stroke-width:1.764;stroke-linecap:round;stroke-dasharray:none"
       id="path2"
       d="M 2.4234863,0.90804693 C 9.1262388,0.66233865 15.837694,0.76772581 22.543798,0.75374277 33.23874,0.70613962 43.933632,0.59425244 54.626294,0.36617707 c 3.763312,-0.0219139 7.517533,-0.24353485 11.27123,-0.48561709 5.282096,-0.17908658 10.554316,0.36636904 15.812979,0.77830461 1.76539,0.13829117 3.531859,0.26241539 5.297789,0.39362311 6.63402,0.5046683 13.270348,0.9786322 19.910838,1.3894218 0,0 -2.49526,-1.83155706 -2.49526,-1.83155706 v 0 C 97.869772,0.38027008 91.321831,0.00146146 84.789353,-0.58875238 81.47392,-0.90792257 78.160123,-1.2443206 74.84352,-1.5510776 c -3.258995,-0.3014285 -6.531552,-0.619143 -9.806287,-0.6834138 -0.691152,-0.013565 -1.382559,0.00618 -2.073836,0.00926 C 59.309203,-2.0346336 55.66162,-1.738214 52.009033,-1.5195697 41.495208,-0.89994766 30.961238,-0.64903442 20.429236,-0.7851626 13.367678,-0.91097203 6.3097687,-1.1234712 -0.74759258,-1.3958768 Z" /><path
       style="fill:none;fill-opacity:1;stroke:none;stroke-width:1.764;stroke-linecap:round;stroke-dasharray:none"
       id="path3"
       d="M -0.23285266,-1.6585169 C 4.8267566,-2.712973 9.9564251,-3.4022809 15.065874,-4.1672225 c 4.883572,-0.7251724 9.773836,-1.4061372 14.652063,-2.1668087 0.400111,-0.06323 0.800225,-0.1264595 1.200335,-0.1896891 0,0 -3.054492,-2.1368655 -3.054492,-2.1368655 v 0 c -0.378537,0.077446 -0.757074,0.1548926 -1.135611,0.2323388 -4.736351,0.9194422 -9.500892,1.6831996 -14.267639,2.4261581 -5.2964873,0.7790495 -10.6027031,1.4801728 -15.9179111,2.1194197 z" /><g
       style="fill:#000000"
       id="g43"
       transform="matrix(0.06500689,0,0,0.06500689,19.751772,132.62107)"><path
         d="m 720,-440 q 83,0 141.5,58.5 58.5,58.5 58.5,141.5 0,83 -58.5,141.5 Q 803,-40 720,-40 637,-40 578.5,-98.5 520,-157 520,-240 520,-323 578.5,-381.5 637,-440 720,-440 Z"
         id="path47"
         style="fill:#28a51a;fill-opacity:1" /><path
         d="m 691,-150 139,-138 -42,-42 -97,95 -39,-39 -42,43 z"
         id="path46"
         style="fill:#b1d6b9;fill-opacity:1" /><path
         d="m 160,-160 q -33,0 -56.5,-23.5 Q 80,-207 80,-240 v -480 q 0,-33 23.5,-56.5 Q 127,-800 160,-800 h 240 l 80,80 h 320 q 33,0 56.5,23.5 23.5,23.5 23.5,56.5 v 171 q -18,-13 -38,-22.5 -20,-9.5 -42,-16.5 V -640 H 447 l -80,-80 H 160 v 480 h 280 q 0,21 3,41 3,20 9,39 z"
         id="path45" /><path
         d="m 160,-240 v -480 212 -12 z"
         id="path1" /></g></g></svg>
