<?xml version="1.0" encoding="UTF-8" standalone="no"?>
<svg
   height="24px"
   viewBox="0 -960 960 960"
   width="24px"
   fill="#000000"
   version="1.1"
   id="svg1"
   sodipodi:docname="icon-installing.svg"
   inkscape:version="1.3.2 (091e20e, 2023-11-25, custom)"
   inkscape:export-filename="icon-installing.png"
   inkscape:export-xdpi="588"
   inkscape:export-ydpi="588"
   xmlns:inkscape="http://www.inkscape.org/namespaces/inkscape"
   xmlns:sodipodi="http://sodipodi.sourceforge.net/DTD/sodipodi-0.dtd"
   xmlns="http://www.w3.org/2000/svg"
   xmlns:svg="http://www.w3.org/2000/svg">
  <defs
     id="defs1" />
  <sodipodi:namedview
     id="namedview1"
     pagecolor="#ffffff"
     bordercolor="#000000"
     borderopacity="0.25"
     inkscape:showpageshadow="2"
     inkscape:pageopacity="0.0"
     inkscape:pagecheckerboard="0"
     inkscape:deskcolor="#d1d1d1"
     inkscape:zoom="17.9375"
     inkscape:cx="20.181185"
     inkscape:cy="18.090592"
     inkscape:window-width="1920"
     inkscape:window-height="1057"
     inkscape:window-x="1272"
     inkscape:window-y="33"
     inkscape:window-maximized="1"
     inkscape:current-layer="svg1" />
  <rect
     style="fill:#ffffff;stroke-width:41.0838;stroke-linecap:round"
     id="rect1"
     width="960"
     height="960"
     x="0"
     y="-960" />
  <path
     d="M240-120v-80l40-40H160q-33 0-56.5-23.5T80-320v-440q0-33 23.5-56.5T160-840h320v80H160v440h640v-120h80v120q0 33-23.5 56.5T800-240H680l40 40v80H240Zm360-240L400-560l56-56 104 103v-327h80v327l104-103 56 56-200 200Z"
     id="path1" />
</svg>
